<?xml version="1.0" encoding="UTF-8"?>
<svg width="114px" height="31px" viewBox="0 0 114 31" version="1.1" xmlns="http://www.w3.org/2000/svg" xmlns:xlink="http://www.w3.org/1999/xlink">
    <title>shopJS</title>
    <defs>
        <path d="M241.448,211.32 C243.389333,211.32 245.042667,211.053333 246.408,210.52 C247.773333,209.986667 248.797333,209.272 249.48,208.376 C250.162667,207.48 250.504,206.488 250.504,205.4 C250.504,203.970667 250.125333,202.872 249.368,202.104 C248.610667,201.336 247.736,200.813333 246.744,200.536 C245.752,200.258667 244.541333,200.034667 243.112,199.864 C242.194667,199.757333 241.522667,199.645333 241.096,199.528 C240.669333,199.410667 240.456,199.213333 240.456,198.936 C240.456,198.381333 241.245333,198.104 242.824,198.104 C244.658667,198.104 246.344,198.530667 247.88,199.384 L247.88,199.384 L249.864,194.616 C248.968,194.146667 247.885333,193.789333 246.616,193.544 C245.346667,193.298667 244.050667,193.176 242.728,193.176 C240.829333,193.176 239.202667,193.442667 237.848,193.976 C236.493333,194.509333 235.474667,195.224 234.792,196.12 C234.109333,197.016 233.768,198.029333 233.768,199.16 C233.768,200.589333 234.146667,201.688 234.904,202.456 C235.661333,203.224 236.541333,203.741333 237.544,204.008 C238.546667,204.274667 239.762667,204.493333 241.192,204.664 C242.130667,204.770667 242.808,204.877333 243.224,204.984 C243.64,205.090667 243.848,205.282667 243.848,205.56 C243.848,205.837333 243.682667,206.045333 243.352,206.184 C243.021333,206.322667 242.44,206.392 241.608,206.392 C240.562667,206.392 239.485333,206.253333 238.376,205.976 C237.266667,205.698667 236.306667,205.314667 235.496,204.824 L235.496,204.824 L233.512,209.592 C234.408,210.104 235.581333,210.52 237.032,210.84 C238.482667,211.16 239.954667,211.32 241.448,211.32 Z M258.769143,211 L258.769143,202.776 C258.769143,201.56 259.01981,200.669333 259.521143,200.104 C260.022476,199.538667 260.678476,199.256 261.489143,199.256 C262.918476,199.256 263.633143,200.258667 263.633143,202.264 L263.633143,202.264 L263.633143,211 L270.865143,211 L270.865143,201.016 C270.865143,198.392 270.209143,196.429333 268.897143,195.128 C267.585143,193.826667 265.85181,193.176 263.697143,193.176 C261.75581,193.176 260.113143,193.752 258.769143,194.904 L258.769143,194.904 L258.769143,187.256 L251.537143,187.256 L251.537143,211 L258.769143,211 Z M282.426286,211.32 C284.388952,211.32 286.143619,210.930667 287.690286,210.152 C289.236952,209.373333 290.442286,208.296 291.306286,206.92 C292.170286,205.544 292.602286,203.981333 292.602286,202.232 C292.602286,200.482667 292.170286,198.92 291.306286,197.544 C290.442286,196.168 289.236952,195.096 287.690286,194.328 C286.143619,193.56 284.388952,193.176 282.426286,193.176 C280.484952,193.176 278.740952,193.56 277.194286,194.328 C275.647619,195.096 274.436952,196.168 273.562286,197.544 C272.687619,198.92 272.250286,200.482667 272.250286,202.232 C272.250286,203.981333 272.687619,205.544 273.562286,206.92 C274.436952,208.296 275.647619,209.373333 277.194286,210.152 C278.740952,210.930667 280.484952,211.32 282.426286,211.32 Z M282.426286,205.688 C281.594286,205.688 280.911619,205.384 280.378286,204.776 C279.844952,204.168 279.578286,203.32 279.578286,202.232 C279.578286,201.144 279.844952,200.301333 280.378286,199.704 C280.911619,199.106667 281.594286,198.808 282.426286,198.808 C283.258286,198.808 283.940952,199.106667 284.474286,199.704 C285.007619,200.301333 285.274286,201.144 285.274286,202.232 C285.274286,203.32 285.007619,204.168 284.474286,204.776 C283.940952,205.384 283.258286,205.688 282.426286,205.688 Z M300.963429,217.208 L300.963429,209.816 C301.987429,210.818667 303.470095,211.32 305.411429,211.32 C306.947429,211.32 308.360762,210.952 309.651429,210.216 C310.942095,209.48 311.966095,208.424 312.723429,207.048 C313.480762,205.672 313.859429,204.077333 313.859429,202.264 C313.859429,200.450667 313.480762,198.850667 312.723429,197.464 C311.966095,196.077333 310.942095,195.016 309.651429,194.28 C308.360762,193.544 306.947429,193.176 305.411429,193.176 C303.256762,193.176 301.656762,193.762667 300.611429,194.936 L300.611429,194.936 L300.611429,193.496 L293.731429,193.496 L293.731429,217.208 L300.963429,217.208 Z M303.683429,205.688 C302.851429,205.688 302.168762,205.389333 301.635429,204.792 C301.102095,204.194667 300.835429,203.352 300.835429,202.264 C300.835429,201.176 301.102095,200.328 301.635429,199.72 C302.168762,199.112 302.851429,198.808 303.683429,198.808 C304.515429,198.808 305.198095,199.112 305.731429,199.72 C306.264762,200.328 306.531429,201.176 306.531429,202.264 C306.531429,203.352 306.264762,204.194667 305.731429,204.792 C305.198095,205.389333 304.515429,205.688 303.683429,205.688 Z M318.212571,211.72 C320.768571,211.72 323.360571,210.424 325.664571,206.572 C327.608571,203.368 331.028571,196.384 332.252571,193.504 C332.720571,192.46 332.936571,191.38 332.936571,190.696 C332.936571,189.94 332.756571,189.328 332.504571,188.932 C332.072571,188.176 331.532571,188.104 330.992571,188.896 C330.222571,190.04 328.807238,192.730111 327.395639,195.520309 L327.011238,196.282667 C326.244571,197.808 325.496571,199.324 324.872571,200.596 C322.676571,205.168 320.084571,210.028 317.456571,210.028 C316.592571,210.028 315.908571,209.56 315.908571,207.436 C315.908571,206.428 316.196571,205.024 316.700571,203.476 C316.952571,202.648 316.520571,202.288 315.728571,202.468 C314.684571,202.72 313.496571,203.764 313.064571,205.384 C312.920571,205.924 312.884571,206.464 312.884571,207.004 C312.884571,209.776 314.756571,211.72 318.212571,211.72 Z M334.998857,211.756 C337.158857,211.756 338.922857,211 339.858857,209.92 C340.794857,208.804 341.262857,207.868 341.262857,207.04 C341.262857,206.356 340.866857,205.708 340.182857,205.204 C338.778857,204.196 333.846857,202.144 333.954857,199.768 C334.134857,195.628 342.018857,190.336 343.350857,191.308 C343.854857,191.668 342.882857,193.252 341.982857,194.584 C340.794857,196.168 340.326857,197.536 340.326857,198.328 C340.326857,199.156 340.686857,199.768 341.190857,200.272 C341.874857,200.992 342.270857,200.704 342.594857,200.128 C343.098857,199.264 344.142857,197.392 345.006857,196.24 C345.546857,195.448 346.446857,194.008 346.086857,192.532 C345.834857,191.56 345.186857,190.372 344.178857,189.436 C343.566857,188.932 342.846857,188.68 341.982857,188.68 C341.154857,188.68 340.398857,188.788 339.210857,189.292 C335.970857,190.66 330.354857,194.944 330.354857,199.84 C330.354857,203.512 335.358857,205.456 337.950857,207.472 C338.346857,207.796 338.526857,208.444 337.986857,208.984 C337.590857,209.38 336.870857,209.56 336.078857,209.56 C333.990857,209.56 331.614857,207.76 330.210857,206.608 C329.454857,205.996 328.446857,205.708 327.402857,205.708 C326.970857,205.708 326.574857,205.744 326.286857,205.816 C325.782857,205.996 325.530857,206.392 326.034857,207.004 C328.878857,210.28 332.370857,211.756 334.998857,211.756 Z" id="path-1"></path>
    </defs>
    <g id="Elated" stroke="none" stroke-width="1" fill="none" fill-rule="evenodd">
        <g id="Desktop" transform="translate(-233.000000, -187.000000)" fill="#0C2741" fill-rule="nonzero">
            <g id="shopJS">
                <use xlink:href="#path-1"></use>
                <use xlink:href="#path-1"></use>
            </g>
        </g>
    </g>
</svg>